<?xml version="1.0" standalone="no"?>
<!DOCTYPE svg PUBLIC "-//W3C//DTD SVG 20010904//EN"
 "http://www.w3.org/TR/2001/REC-SVG-20010904/DTD/svg10.dtd">
<svg version="1.0" xmlns="http://www.w3.org/2000/svg"
 width="70.000000pt" height="70.000000pt" viewBox="0 0 70.000000 70.000000"
 preserveAspectRatio="xMidYMid meet">
<metadata>
Created by potrace 1.11, written by Peter Selinger 2001-2013
</metadata>
<g transform="translate(0.000000,70.000000) scale(0.100000,-0.100000)"
fill="#000000" stroke="none">
<path d="M370 620 c0 -7 -6 -10 -14 -7 -8 3 -22 -3 -32 -14 -9 -10 -19 -17
-22 -15 -2 3 -12 -2 -21 -11 -9 -9 -14 -17 -11 -18 3 0 -5 -11 -17 -25 -13
-13 -23 -37 -23 -52 0 -16 -4 -27 -8 -24 -5 3 -9 -1 -9 -9 0 -8 4 -12 8 -9 4
2 11 0 14 -6 4 -6 1 -9 -7 -8 -7 2 -12 -3 -10 -10 1 -8 -1 -11 -6 -8 -5 3 -20
-6 -33 -21 -13 -14 -17 -23 -9 -19 8 4 -1 -7 -20 -25 -19 -17 -29 -29 -23 -25
7 4 13 2 13 -3 0 -6 -4 -11 -9 -11 -6 0 -8 -9 -6 -20 2 -11 -1 -20 -8 -20 -8
0 -8 -3 1 -12 7 -7 8 -17 1 -30 -6 -10 -6 -18 0 -18 5 0 11 -7 14 -14 4 -11 1
-13 -10 -9 -13 5 -12 2 3 -14 10 -11 22 -18 25 -17 4 2 6 -4 5 -14 0 -11 6
-16 17 -16 15 2 16 -1 5 -14 -10 -12 -10 -14 0 -8 6 4 12 3 12 -3 0 -6 6 -8
14 -5 8 3 17 0 22 -7 5 -8 3 -10 -6 -4 -8 5 -11 4 -7 -3 4 -5 16 -8 27 -5 11
3 20 1 20 -4 0 -5 9 -9 20 -10 11 -1 20 4 20 10 0 7 4 6 10 -3 8 -12 11 -13
19 -1 6 9 11 10 15 3 4 -6 13 -9 21 -6 8 4 13 10 10 14 -6 10 24 22 36 14 5
-3 9 2 9 11 0 9 4 14 9 11 13 -8 39 26 36 47 -3 13 1 17 11 13 11 -4 12 -2 4
14 -8 15 -6 21 7 29 14 8 15 12 6 22 -10 10 -9 15 5 26 9 8 11 12 5 8 -9 -4
-11 -1 -7 9 3 9 10 13 15 10 5 -3 9 0 9 6 0 6 5 8 10 5 6 -3 10 1 10 9 0 10 6
13 18 9 15 -6 15 -4 4 9 -11 14 -10 18 6 27 13 7 18 19 17 36 -2 14 0 25 5 25
7 0 6 14 -4 75 -2 11 -4 26 -5 33 0 7 -5 11 -10 8 -5 -3 -12 6 -15 19 -4 14
-10 23 -15 20 -5 -2 -11 2 -15 10 -3 8 -12 15 -21 15 -8 0 -15 7 -15 15 0 8
-6 12 -14 9 -8 -3 -24 -1 -35 6 -12 6 -21 7 -21 1 0 -10 -19 -9 -37 2 -8 5
-13 3 -13 -3z m80 -115 c4 3 14 -3 21 -13 12 -15 12 -16 -1 -7 -10 6 -9 4 2
-6 18 -17 21 -59 3 -59 -6 0 -6 -3 1 -8 8 -5 5 -13 -7 -26 -14 -15 -19 -16
-19 -5 0 12 -2 11 -10 -1 -7 -12 -10 -12 -10 -1 0 7 -6 11 -15 8 -8 -4 -17 -1
-21 5 -5 7 -2 8 6 3 9 -5 11 -4 6 3 -4 7 -17 12 -30 12 -15 0 -27 9 -34 26 -7
14 -8 23 -2 19 5 -3 10 -1 10 4 0 6 -5 11 -12 11 -6 0 -1 9 12 20 18 16 25 17
32 8 5 -9 8 -7 8 7 0 17 2 17 10 5 8 -13 10 -12 10 3 0 17 1 17 16 3 8 -9 19
-14 24 -11z m-165 -205 c-5 -8 75 -50 97 -50 9 0 9 -3 1 -11 -6 -6 -9 -18 -6
-25 3 -8 0 -14 -6 -14 -6 0 -11 -7 -11 -16 0 -8 -4 -13 -9 -10 -5 4 -11 1 -13
-6 -2 -6 -12 -12 -21 -14 -9 -1 -15 2 -11 7 7 12 -10 11 -22 -1 -7 -7 -17 -2
-31 14 -12 13 -19 27 -16 30 4 3 1 6 -6 6 -8 0 -11 10 -8 28 6 40 26 68 48 69
11 1 17 -2 14 -7z m175 -164 c0 -3 -4 -8 -10 -11 -5 -3 -10 -1 -10 4 0 6 5 11
10 11 6 0 10 -2 10 -4z"/>
<path d="M266 177 c3 -10 9 -15 12 -12 3 3 0 11 -7 18 -10 9 -11 8 -5 -6z"/>
</g>
</svg>
